<svg width="119" height="24" viewBox="0 0 119 24" fill="none" xmlns="http://www.w3.org/2000/svg">
<path d="M9.77978 19.288C8.45178 19.288 7.22778 19.08 6.10778 18.664C5.00378 18.232 4.03578 17.624 3.20378 16.84C2.38778 16.056 1.74778 15.136 1.28378 14.08C0.835781 13.024 0.611781 11.864 0.611781 10.6C0.611781 9.336 0.835781 8.176 1.28378 7.12C1.74778 6.064 2.39578 5.144 3.22778 4.36C4.05978 3.576 5.03578 2.976 6.15578 2.56C7.27578 2.128 8.50778 1.912 9.85178 1.912C11.3398 1.912 12.6758 2.16 13.8598 2.656C15.0598 3.152 16.0678 3.872 16.8838 4.816L14.3878 7.12C13.7798 6.48 13.1158 6.008 12.3958 5.704C11.6758 5.384 10.8918 5.224 10.0438 5.224C9.22778 5.224 8.48378 5.352 7.81178 5.608C7.13978 5.864 6.55578 6.232 6.05978 6.712C5.57978 7.192 5.20378 7.76 4.93178 8.416C4.67578 9.072 4.54778 9.8 4.54778 10.6C4.54778 11.384 4.67578 12.104 4.93178 12.76C5.20378 13.416 5.57978 13.992 6.05978 14.488C6.55578 14.968 7.13178 15.336 7.78778 15.592C8.45978 15.848 9.19578 15.976 9.99578 15.976C10.7638 15.976 11.5078 15.856 12.2278 15.616C12.9638 15.36 13.6758 14.936 14.3638 14.344L16.5718 17.152C15.6598 17.84 14.5958 18.368 13.3798 18.736C12.1798 19.104 10.9798 19.288 9.77978 19.288ZM13.0198 16.648V10.336H16.5718V17.152L13.0198 16.648ZM19.9194 19V6.088H23.4954V9.736L22.9914 8.68C23.3754 7.768 23.9914 7.08 24.8394 6.616C25.6874 6.136 26.7194 5.896 27.9354 5.896V9.352C27.7754 9.336 27.6314 9.328 27.5034 9.328C27.3754 9.312 27.2394 9.304 27.0954 9.304C26.0714 9.304 25.2394 9.6 24.5994 10.192C23.9754 10.768 23.6634 11.672 23.6634 12.904V19H19.9194ZM36.2118 19.192C34.8358 19.192 33.6118 18.904 32.5398 18.328C31.4838 17.752 30.6438 16.968 30.0198 15.976C29.4118 14.968 29.1078 13.824 29.1078 12.544C29.1078 11.248 29.4118 10.104 30.0198 9.112C30.6438 8.104 31.4838 7.32 32.5398 6.76C33.6118 6.184 34.8358 5.896 36.2118 5.896C37.5718 5.896 38.7878 6.184 39.8598 6.76C40.9318 7.32 41.7718 8.096 42.3798 9.088C42.9878 10.08 43.2918 11.232 43.2918 12.544C43.2918 13.824 42.9878 14.968 42.3798 15.976C41.7718 16.968 40.9318 17.752 39.8598 18.328C38.7878 18.904 37.5718 19.192 36.2118 19.192ZM36.2118 16.12C36.8358 16.12 37.3958 15.976 37.8918 15.688C38.3878 15.4 38.7798 14.992 39.0678 14.464C39.3558 13.92 39.4998 13.28 39.4998 12.544C39.4998 11.792 39.3558 11.152 39.0678 10.624C38.7798 10.096 38.3878 9.688 37.8918 9.4C37.3958 9.112 36.8358 8.968 36.2118 8.968C35.5878 8.968 35.0278 9.112 34.5318 9.4C34.0358 9.688 33.6358 10.096 33.3318 10.624C33.0438 11.152 32.8998 11.792 32.8998 12.544C32.8998 13.28 33.0438 13.92 33.3318 14.464C33.6358 14.992 34.0358 15.4 34.5318 15.688C35.0278 15.976 35.5878 16.12 36.2118 16.12ZM48.3948 19L43.7388 6.088H47.2668L51.1308 17.2H49.4508L53.4828 6.088H56.6508L60.5628 17.2H58.8828L62.8668 6.088H66.1788L61.4988 19H57.8748L54.4428 9.472H55.5468L51.9948 19H48.3948ZM67.9194 19V6.088H71.6634V19H67.9194ZM69.7914 4.288C69.1034 4.288 68.5434 4.088 68.1114 3.688C67.6794 3.288 67.4634 2.792 67.4634 2.2C67.4634 1.608 67.6794 1.112 68.1114 0.711999C68.5434 0.311999 69.1034 0.111999 69.7914 0.111999C70.4794 0.111999 71.0394 0.303999 71.4714 0.688C71.9034 1.056 72.1194 1.536 72.1194 2.128C72.1194 2.752 71.9034 3.272 71.4714 3.688C71.0554 4.088 70.4954 4.288 69.7914 4.288ZM80.4182 19.192C78.8982 19.192 77.7142 18.808 76.8662 18.04C76.0182 17.256 75.5942 16.096 75.5942 14.56V3.232H79.3382V14.512C79.3382 15.056 79.4822 15.48 79.7702 15.784C80.0582 16.072 80.4502 16.216 80.9462 16.216C81.5382 16.216 82.0422 16.056 82.4582 15.736L83.4662 18.376C83.0822 18.648 82.6182 18.856 82.0742 19C81.5462 19.128 80.9942 19.192 80.4182 19.192ZM73.6022 9.256V6.376H82.5542V9.256H73.6022ZM93.2958 19.288C90.9118 19.288 89.0478 18.624 87.7038 17.296C86.3598 15.968 85.6878 14.072 85.6878 11.608V2.2H89.5758V11.464C89.5758 13.064 89.9038 14.216 90.5598 14.92C91.2158 15.624 92.1358 15.976 93.3198 15.976C94.5038 15.976 95.4238 15.624 96.0798 14.92C96.7358 14.216 97.0638 13.064 97.0638 11.464V2.2H100.904V11.608C100.904 14.072 100.232 15.968 98.8878 17.296C97.5438 18.624 95.6798 19.288 93.2958 19.288ZM112.114 19.192C111.026 19.192 110.074 18.952 109.258 18.472C108.442 17.992 107.802 17.264 107.338 16.288C106.89 15.296 106.666 14.048 106.666 12.544C106.666 11.024 106.882 9.776 107.314 8.8C107.746 7.824 108.37 7.096 109.186 6.616C110.002 6.136 110.978 5.896 112.114 5.896C113.33 5.896 114.418 6.176 115.378 6.736C116.354 7.28 117.122 8.048 117.682 9.04C118.258 10.032 118.546 11.2 118.546 12.544C118.546 13.904 118.258 15.08 117.682 16.072C117.122 17.064 116.354 17.832 115.378 18.376C114.418 18.92 113.33 19.192 112.114 19.192ZM104.482 23.656V6.088H108.058V8.728L107.986 12.568L108.226 16.384V23.656H104.482ZM111.466 16.12C112.09 16.12 112.642 15.976 113.122 15.688C113.618 15.4 114.01 14.992 114.298 14.464C114.602 13.92 114.754 13.28 114.754 12.544C114.754 11.792 114.602 11.152 114.298 10.624C114.01 10.096 113.618 9.688 113.122 9.4C112.642 9.112 112.09 8.968 111.466 8.968C110.842 8.968 110.282 9.112 109.786 9.4C109.29 9.688 108.898 10.096 108.61 10.624C108.322 11.152 108.178 11.792 108.178 12.544C108.178 13.28 108.322 13.92 108.61 14.464C108.898 14.992 109.29 15.4 109.786 15.688C110.282 15.976 110.842 16.12 111.466 16.12Z" fill="white"/>
</svg>
